  <svg xmlns="http://www.w3.org/2000/svg" viewBox="0 0 141.577 188.754" width="100%" style="vertical-align: middle; max-width: 100%; width: 100%;">
   <g>
    <g>
     <path d="M39.278,188.754A39.349,39.349,0,0,1,5.782,128.9L50.4,55.863A32.565,32.565,0,0,1,95.11,45.06l2.155,1.316a32.528,32.528,0,0,1,10.8,44.716L76.074,143.47l-4.689-2.864,31.994-52.378A27.033,27.033,0,0,0,94.4,51.065l-2.154-1.316a27.065,27.065,0,0,0-37.163,8.978L10.472,131.762A33.841,33.841,0,1,0,68.23,167.044L130.318,65.4A39.385,39.385,0,1,0,63.1,24.338L23.288,89.507,18.6,86.643l39.808-65.17a44.881,44.881,0,1,1,76.6,46.791L72.919,169.908a39.075,39.075,0,0,1-24.331,17.731A39.633,39.633,0,0,1,39.278,188.754Z" fill="rgb(109,167,149)">
     </path>
    </g>
   </g>
  </svg>
