  <svg xmlns="http://www.w3.org/2000/svg" viewBox="0 0 96.9 86.4" width="100%" style="vertical-align: middle; max-width: 100%; width: 100%;">
   <g>
    <g>
     <g style="opacity: .5;">
      <path d="M30.2,58.9c-9.5,5.2-22.8,1.3-27.9-8.2-5.1-9.5-1.1-22.8,8.5-27.9,9.6-5,22.8-.9,27.8,8.7-1.6-6.8-3.2-13.9-1.2-20.6S46.1-1.5,52.9.4c4.3,1.2,7.4,5.2,8.4,9.5,1,4.3,0,8.9-1.6,13,2.4-6.9,5.6-14,11.5-18.2,6-4.2,15.5-4.1,19.6,2,2.5,3.7,2.4,8.7.8,12.9-1.6,4.2-4.4,7.8-7.2,11.3" fill="rgb(115,109,189)">
      </path>
      <path d="M30.8,57.8c-3.1,3.1-6.1,7.8-8,11.8-1.8,4-2.1,9,.4,12.6,3.9,5.5,12.8,5.1,18.2,1,5.4-4.1,8.1-10.7,10.6-17,.5,5.9,5.4,11.1,11.2,12,5.8.9,12.1-2.5,14.4-7.9,2.3-5.4.5-12.3-4.2-15.9,4.9,2.3,10.8,2.7,15.7.3,4.8-2.4,8.2-7.8,7.7-13.2-.5-5.4-7.4-11.9-12.8-11.8" fill="rgb(115,109,189)">
      </path>
      <path d="M58.4,44.9c1.2,3.9-1.8,8.3-5.6,9.7-3.8,1.4-8.6-.6-10.1-4.3s.6-8.5,6-10.5c2.7-1,8,0,9.6,5.1Z" fill="rgb(255, 247, 227)">
      </path>
     </g>
    </g>
   </g>
  </svg>
